<svg viewBox="0 0 256 48" xmlns="http://www.w3.org/2000/svg">
  <path
    style="fill: #2a7fff"
    d="M 24.262847,4.0000002 11.19165,8.3282792 13.531178,10.014591 26.618325,5.6809832 Z M 13.531178,10.014591 11.19165,8.3284682 V 37.314732 l 2.339528,1.910249 z M 27.089216,6.0170212 14.116174,10.312758 v 29.389464 l 2.339528,1.910287 V 12.067442 L 29.510307,7.7446442 Z M 30.03037,8.1157932 17.040545,12.417011 V 27.909488 42.089713 L 19.380225,44 36.80835,38.229416 V 23.893247 l -2.339528,-1.754684 -2.017362,0.667956 v -0.543194 l 1.432517,-0.47433 -1.432517,-1.074407 V 9.8435672 Z m 0,2.5294118 v 12.963066 l -10.650145,3.526527 v -0.05707 -12.906032 z m -0.520063,0.788221 -2.421091,0.801789 v 9.274283 l -7.124147,2.359069 v 2.529374 l 9.506157,-3.147781 0.03893,0.03024 v -0.04158 -2.529223 z m -2.891982,0.957733 -2.355478,0.779981 v 6.311057 l 0.01134,0.0076 -4.307717,1.426545 v 2.460852 l 6.653255,-2.203126 v -2.46104 z m 7.850497,12.276778 v 11.651191 l -15.088597,4.995895 v -9.339594 -2.012901 -0.298205 l 13.071046,-4.328127 v 0 0 z m -0.584845,0.80572 -2.339679,0.774728 v 7.683064 l -11.579229,3.834785 v 2.684637 l 13.918908,-4.608946 z m -2.924523,0.968353 -2.339529,0.774841 v 4.327107 l -8.654856,2.865752 v 2.684978 l 10.994385,-3.640631 z"
  />
</svg>
