<svg width="80" height="80" xmlns="http://www.w3.org/2000/svg" xmlns:xlink="http://www.w3.org/1999/xlink" xml:space="preserve" overflow="hidden"><g transform="translate(-205 -76)"><g><g><g><g><path d="M245.933 82.5833 224.42 89.707 228.27 92.4824 249.809 85.3499ZM228.27 92.4824 224.42 89.7073 224.42 137.414 228.27 140.558ZM250.584 85.903 229.233 92.9732 229.233 141.343 233.083 144.487 233.083 95.8609 254.569 88.7464ZM255.425 89.3572 234.046 96.4363 234.046 121.934 234.046 145.273 237.897 148.417 266.58 138.919 266.58 115.324 262.73 112.436 259.41 113.536 259.41 112.642 261.767 111.861 259.41 110.093 259.41 92.2009ZM255.425 93.5202 255.425 114.855 237.897 120.659 237.897 120.565 237.897 99.3243ZM254.569 94.8175 250.584 96.1371 250.584 111.401 238.859 115.284 238.859 119.447 254.505 114.266 254.569 114.316 254.569 114.247 254.569 110.085ZM249.809 96.3939 245.933 97.6774 245.933 108.064 245.951 108.077 238.862 110.425 238.862 114.475 249.812 110.849 249.812 106.798ZM262.73 116.599 262.73 135.775 237.897 143.998 237.897 128.626 237.897 125.313 237.897 124.822 259.409 117.699ZM261.767 117.925 257.917 119.2 257.917 131.845 238.859 138.157 238.859 142.575 261.767 134.99ZM256.954 119.519 253.104 120.794 253.104 127.916 238.859 132.633 238.859 137.052 256.954 131.06Z" fill="#D2D6DB" fill-rule="nonzero" fill-opacity="1"/></g></g></g></g></g></svg>