<svg width="91" height="89" xmlns="http://www.w3.org/2000/svg" xmlns:xlink="http://www.w3.org/1999/xlink" xml:space="preserve" overflow="hidden"><g transform="translate(-525 -584)"><g><g><g><g><path d="M570.987 591.417 546.751 599.442 551.089 602.569 575.355 594.534ZM551.089 602.569 546.751 599.442 546.751 653.188 551.089 656.73ZM576.228 595.157 552.174 603.122 552.174 657.615 556.512 661.156 556.512 606.375 580.717 598.36ZM581.681 599.048 557.596 607.023 557.596 635.749 557.596 662.041 561.934 665.583 594.249 654.884 594.249 628.302 589.911 625.049 586.17 626.287 586.17 625.28 588.827 624.4 586.17 622.408 586.17 602.252ZM581.681 603.738 581.681 627.774 561.934 634.312 561.934 634.207 561.934 610.277ZM580.717 605.199 576.228 606.686 576.228 623.882 563.019 628.256 563.019 632.946 580.645 627.11 580.717 627.166 580.717 627.089 580.717 622.399ZM575.355 606.975 570.987 608.421 570.987 620.123 571.008 620.137 563.021 622.782 563.021 627.345 575.357 623.26 575.357 618.697ZM589.911 629.738 589.911 651.342 561.934 660.605 561.934 643.288 561.934 639.555 561.934 639.003 586.17 630.978ZM588.827 631.232 584.488 632.669 584.488 646.914 563.019 654.025 563.019 659.003 588.827 650.457ZM583.404 633.028 579.066 634.465 579.066 642.488 563.019 647.801 563.019 652.78 583.404 646.029Z" fill="#262626" fill-rule="nonzero" fill-opacity="1"/></g></g></g></g></g></svg>